# xmcd
# 
# Track frame offsets:
#     182
#     12782
#     24897
#     37640
#     57405
#     73240
#     87445
#     103885
#     117687
#     135447
#     145525
#     162827
#     175325
#     189685
# 
# Disc length: 2697
# 
# Revision: 7
# Processed by: cddbd v1.5.2PL0 Copyright (c) Steve Scherf et al.
# Submitted via: BonkEnc v1.0.6
# 
DISCID=ba0a870e
DTITLE=Clay Walker - Greatest Hits
DYEAR=1998
DGENRE=Country
TTITLE0=What's It To You
TTITLE1=You're Beginning To Get To Me
TTITLE2=Live Until I Die
TTITLE3=This Woman And This Man
TTITLE4=Dreaming With My Eyes Open
TTITLE5=Rumor Has It
TTITLE6=Hypnotize The Moon
TTITLE7=Then What
TTITLE8=Where Do I Fit In The Picture
TTITLE9=If I Could Make A Living
TTITLE10=Ordinary People
TTITLE11=Only On Days That End In "Y"
TTITLE12=Watch This
TTITLE13=Who Needs You Baby
EXTD=YEAR: 1998
EXTT0=
EXTT1=
EXTT2=
EXTT3=
EXTT4=
EXTT5=
EXTT6=
EXTT7=
EXTT8=
EXTT9=
EXTT10=
EXTT11=
EXTT12=
EXTT13=
PLAYORDER=
